<?xml version="1.0" standalone="no"?>
<!DOCTYPE svg PUBLIC "-//W3C//DTD SVG 1.1//EN" "http://www.w3.org/Graphics/SVG/1.1/DTD/svg11.dtd">
<svg width="484" height="484" version="1.1" xmlns="http://www.w3.org/2000/svg">
  <title>30 by 30 orthogonal maze</title>
  <desc>30 by 30 orthogonal maze generated by The Maze Generator Website (https://www.mazegenerator.net/).</desc>
  <g fill="none" stroke="#000000" stroke-width="2" stroke-linecap="square">
    <line x1="2" y1="2" x2="226" y2="2" />
    <line x1="242" y1="2" x2="482" y2="2" />
    <line x1="50" y1="18" x2="66" y2="18" />
    <line x1="82" y1="18" x2="146" y2="18" />
    <line x1="178" y1="18" x2="226" y2="18" />
    <line x1="322" y1="18" x2="370" y2="18" />
    <line x1="418" y1="18" x2="450" y2="18" />
    <line x1="18" y1="34" x2="50" y2="34" />
    <line x1="146" y1="34" x2="162" y2="34" />
    <line x1="226" y1="34" x2="290" y2="34" />
    <line x1="322" y1="34" x2="354" y2="34" />
    <line x1="402" y1="34" x2="434" y2="34" />
    <line x1="466" y1="34" x2="482" y2="34" />
    <line x1="2" y1="50" x2="18" y2="50" />
    <line x1="66" y1="50" x2="82" y2="50" />
    <line x1="130" y1="50" x2="146" y2="50" />
    <line x1="162" y1="50" x2="226" y2="50" />
    <line x1="258" y1="50" x2="274" y2="50" />
    <line x1="306" y1="50" x2="370" y2="50" />
    <line x1="402" y1="50" x2="418" y2="50" />
    <line x1="434" y1="50" x2="466" y2="50" />
    <line x1="34" y1="66" x2="50" y2="66" />
    <line x1="82" y1="66" x2="98" y2="66" />
    <line x1="146" y1="66" x2="162" y2="66" />
    <line x1="178" y1="66" x2="194" y2="66" />
    <line x1="210" y1="66" x2="242" y2="66" />
    <line x1="290" y1="66" x2="322" y2="66" />
    <line x1="354" y1="66" x2="386" y2="66" />
    <line x1="402" y1="66" x2="450" y2="66" />
    <line x1="34" y1="82" x2="82" y2="82" />
    <line x1="146" y1="82" x2="210" y2="82" />
    <line x1="258" y1="82" x2="274" y2="82" />
    <line x1="370" y1="82" x2="418" y2="82" />
    <line x1="450" y1="82" x2="466" y2="82" />
    <line x1="18" y1="98" x2="66" y2="98" />
    <line x1="82" y1="98" x2="114" y2="98" />
    <line x1="146" y1="98" x2="194" y2="98" />
    <line x1="258" y1="98" x2="306" y2="98" />
    <line x1="402" y1="98" x2="434" y2="98" />
    <line x1="466" y1="98" x2="482" y2="98" />
    <line x1="2" y1="114" x2="34" y2="114" />
    <line x1="50" y1="114" x2="98" y2="114" />
    <line x1="114" y1="114" x2="146" y2="114" />
    <line x1="162" y1="114" x2="178" y2="114" />
    <line x1="194" y1="114" x2="210" y2="114" />
    <line x1="226" y1="114" x2="258" y2="114" />
    <line x1="274" y1="114" x2="322" y2="114" />
    <line x1="354" y1="114" x2="386" y2="114" />
    <line x1="434" y1="114" x2="466" y2="114" />
    <line x1="34" y1="130" x2="114" y2="130" />
    <line x1="130" y1="130" x2="162" y2="130" />
    <line x1="178" y1="130" x2="194" y2="130" />
    <line x1="210" y1="130" x2="242" y2="130" />
    <line x1="306" y1="130" x2="338" y2="130" />
    <line x1="386" y1="130" x2="434" y2="130" />
    <line x1="2" y1="146" x2="18" y2="146" />
    <line x1="34" y1="146" x2="50" y2="146" />
    <line x1="82" y1="146" x2="130" y2="146" />
    <line x1="146" y1="146" x2="178" y2="146" />
    <line x1="194" y1="146" x2="210" y2="146" />
    <line x1="226" y1="146" x2="274" y2="146" />
    <line x1="290" y1="146" x2="354" y2="146" />
    <line x1="370" y1="146" x2="418" y2="146" />
    <line x1="450" y1="146" x2="482" y2="146" />
    <line x1="18" y1="162" x2="34" y2="162" />
    <line x1="66" y1="162" x2="82" y2="162" />
    <line x1="98" y1="162" x2="146" y2="162" />
    <line x1="178" y1="162" x2="194" y2="162" />
    <line x1="210" y1="162" x2="226" y2="162" />
    <line x1="242" y1="162" x2="322" y2="162" />
    <line x1="370" y1="162" x2="386" y2="162" />
    <line x1="418" y1="162" x2="434" y2="162" />
    <line x1="50" y1="178" x2="66" y2="178" />
    <line x1="114" y1="178" x2="130" y2="178" />
    <line x1="146" y1="178" x2="178" y2="178" />
    <line x1="194" y1="178" x2="210" y2="178" />
    <line x1="226" y1="178" x2="242" y2="178" />
    <line x1="274" y1="178" x2="290" y2="178" />
    <line x1="322" y1="178" x2="418" y2="178" />
    <line x1="466" y1="178" x2="482" y2="178" />
    <line x1="2" y1="194" x2="50" y2="194" />
    <line x1="82" y1="194" x2="146" y2="194" />
    <line x1="178" y1="194" x2="194" y2="194" />
    <line x1="210" y1="194" x2="226" y2="194" />
    <line x1="242" y1="194" x2="354" y2="194" />
    <line x1="386" y1="194" x2="434" y2="194" />
    <line x1="450" y1="194" x2="466" y2="194" />
    <line x1="34" y1="210" x2="114" y2="210" />
    <line x1="162" y1="210" x2="178" y2="210" />
    <line x1="210" y1="210" x2="242" y2="210" />
    <line x1="258" y1="210" x2="306" y2="210" />
    <line x1="354" y1="210" x2="434" y2="210" />
    <line x1="450" y1="210" x2="482" y2="210" />
    <line x1="2" y1="226" x2="34" y2="226" />
    <line x1="66" y1="226" x2="82" y2="226" />
    <line x1="146" y1="226" x2="178" y2="226" />
    <line x1="226" y1="226" x2="290" y2="226" />
    <line x1="306" y1="226" x2="322" y2="226" />
    <line x1="434" y1="226" x2="466" y2="226" />
    <line x1="34" y1="242" x2="66" y2="242" />
    <line x1="82" y1="242" x2="98" y2="242" />
    <line x1="114" y1="242" x2="130" y2="242" />
    <line x1="162" y1="242" x2="226" y2="242" />
    <line x1="258" y1="242" x2="290" y2="242" />
    <line x1="306" y1="242" x2="402" y2="242" />
    <line x1="450" y1="242" x2="466" y2="242" />
    <line x1="18" y1="258" x2="82" y2="258" />
    <line x1="98" y1="258" x2="146" y2="258" />
    <line x1="226" y1="258" x2="258" y2="258" />
    <line x1="274" y1="258" x2="306" y2="258" />
    <line x1="322" y1="258" x2="338" y2="258" />
    <line x1="370" y1="258" x2="386" y2="258" />
    <line x1="402" y1="258" x2="418" y2="258" />
    <line x1="450" y1="258" x2="482" y2="258" />
    <line x1="2" y1="274" x2="18" y2="274" />
    <line x1="82" y1="274" x2="98" y2="274" />
    <line x1="130" y1="274" x2="194" y2="274" />
    <line x1="210" y1="274" x2="226" y2="274" />
    <line x1="242" y1="274" x2="274" y2="274" />
    <line x1="290" y1="274" x2="322" y2="274" />
    <line x1="386" y1="274" x2="418" y2="274" />
    <line x1="434" y1="274" x2="482" y2="274" />
    <line x1="18" y1="290" x2="34" y2="290" />
    <line x1="66" y1="290" x2="130" y2="290" />
    <line x1="146" y1="290" x2="162" y2="290" />
    <line x1="194" y1="290" x2="210" y2="290" />
    <line x1="274" y1="290" x2="290" y2="290" />
    <line x1="322" y1="290" x2="370" y2="290" />
    <line x1="418" y1="290" x2="434" y2="290" />
    <line x1="450" y1="290" x2="466" y2="290" />
    <line x1="18" y1="306" x2="66" y2="306" />
    <line x1="146" y1="306" x2="178" y2="306" />
    <line x1="194" y1="306" x2="210" y2="306" />
    <line x1="242" y1="306" x2="274" y2="306" />
    <line x1="290" y1="306" x2="322" y2="306" />
    <line x1="354" y1="306" x2="402" y2="306" />
    <line x1="434" y1="306" x2="450" y2="306" />
    <line x1="466" y1="306" x2="482" y2="306" />
    <line x1="34" y1="322" x2="50" y2="322" />
    <line x1="82" y1="322" x2="114" y2="322" />
    <line x1="162" y1="322" x2="194" y2="322" />
    <line x1="210" y1="322" x2="226" y2="322" />
    <line x1="306" y1="322" x2="322" y2="322" />
    <line x1="354" y1="322" x2="370" y2="322" />
    <line x1="402" y1="322" x2="418" y2="322" />
    <line x1="450" y1="322" x2="466" y2="322" />
    <line x1="2" y1="338" x2="34" y2="338" />
    <line x1="50" y1="338" x2="66" y2="338" />
    <line x1="98" y1="338" x2="162" y2="338" />
    <line x1="178" y1="338" x2="210" y2="338" />
    <line x1="226" y1="338" x2="242" y2="338" />
    <line x1="274" y1="338" x2="290" y2="338" />
    <line x1="338" y1="338" x2="354" y2="338" />
    <line x1="370" y1="338" x2="402" y2="338" />
    <line x1="418" y1="338" x2="466" y2="338" />
    <line x1="18" y1="354" x2="50" y2="354" />
    <line x1="66" y1="354" x2="82" y2="354" />
    <line x1="130" y1="354" x2="146" y2="354" />
    <line x1="162" y1="354" x2="226" y2="354" />
    <line x1="258" y1="354" x2="274" y2="354" />
    <line x1="306" y1="354" x2="370" y2="354" />
    <line x1="402" y1="354" x2="418" y2="354" />
    <line x1="434" y1="354" x2="450" y2="354" />
    <line x1="2" y1="370" x2="66" y2="370" />
    <line x1="82" y1="370" x2="98" y2="370" />
    <line x1="146" y1="370" x2="194" y2="370" />
    <line x1="258" y1="370" x2="306" y2="370" />
    <line x1="354" y1="370" x2="402" y2="370" />
    <line x1="418" y1="370" x2="434" y2="370" />
    <line x1="466" y1="370" x2="482" y2="370" />
    <line x1="34" y1="386" x2="82" y2="386" />
    <line x1="98" y1="386" x2="114" y2="386" />
    <line x1="130" y1="386" x2="162" y2="386" />
    <line x1="194" y1="386" x2="226" y2="386" />
    <line x1="242" y1="386" x2="258" y2="386" />
    <line x1="290" y1="386" x2="354" y2="386" />
    <line x1="370" y1="386" x2="418" y2="386" />
    <line x1="434" y1="386" x2="466" y2="386" />
    <line x1="50" y1="402" x2="66" y2="402" />
    <line x1="82" y1="402" x2="98" y2="402" />
    <line x1="114" y1="402" x2="146" y2="402" />
    <line x1="162" y1="402" x2="194" y2="402" />
    <line x1="226" y1="402" x2="242" y2="402" />
    <line x1="338" y1="402" x2="386" y2="402" />
    <line x1="418" y1="402" x2="434" y2="402" />
    <line x1="466" y1="402" x2="482" y2="402" />
    <line x1="34" y1="418" x2="50" y2="418" />
    <line x1="98" y1="418" x2="146" y2="418" />
    <line x1="210" y1="418" x2="258" y2="418" />
    <line x1="274" y1="418" x2="290" y2="418" />
    <line x1="322" y1="418" x2="338" y2="418" />
    <line x1="354" y1="418" x2="370" y2="418" />
    <line x1="386" y1="418" x2="418" y2="418" />
    <line x1="18" y1="434" x2="34" y2="434" />
    <line x1="50" y1="434" x2="66" y2="434" />
    <line x1="98" y1="434" x2="114" y2="434" />
    <line x1="162" y1="434" x2="210" y2="434" />
    <line x1="226" y1="434" x2="274" y2="434" />
    <line x1="290" y1="434" x2="322" y2="434" />
    <line x1="338" y1="434" x2="354" y2="434" />
    <line x1="370" y1="434" x2="402" y2="434" />
    <line x1="450" y1="434" x2="482" y2="434" />
    <line x1="18" y1="450" x2="50" y2="450" />
    <line x1="66" y1="450" x2="162" y2="450" />
    <line x1="210" y1="450" x2="258" y2="450" />
    <line x1="274" y1="450" x2="290" y2="450" />
    <line x1="306" y1="450" x2="338" y2="450" />
    <line x1="354" y1="450" x2="386" y2="450" />
    <line x1="402" y1="450" x2="434" y2="450" />
    <line x1="18" y1="466" x2="50" y2="466" />
    <line x1="82" y1="466" x2="130" y2="466" />
    <line x1="146" y1="466" x2="162" y2="466" />
    <line x1="178" y1="466" x2="194" y2="466" />
    <line x1="210" y1="466" x2="226" y2="466" />
    <line x1="258" y1="466" x2="274" y2="466" />
    <line x1="290" y1="466" x2="322" y2="466" />
    <line x1="338" y1="466" x2="354" y2="466" />
    <line x1="434" y1="466" x2="466" y2="466" />
    <line x1="2" y1="482" x2="242" y2="482" />
    <line x1="258" y1="482" x2="482" y2="482" />
    <line x1="2" y1="2" x2="2" y2="482" />
    <line x1="18" y1="18" x2="18" y2="34" />
    <line x1="18" y1="50" x2="18" y2="66" />
    <line x1="18" y1="82" x2="18" y2="98" />
    <line x1="18" y1="130" x2="18" y2="146" />
    <line x1="18" y1="162" x2="18" y2="178" />
    <line x1="18" y1="210" x2="18" y2="226" />
    <line x1="18" y1="242" x2="18" y2="258" />
    <line x1="18" y1="306" x2="18" y2="322" />
    <line x1="18" y1="370" x2="18" y2="450" />
    <line x1="34" y1="2" x2="34" y2="18" />
    <line x1="34" y1="34" x2="34" y2="82" />
    <line x1="34" y1="98" x2="34" y2="130" />
    <line x1="34" y1="146" x2="34" y2="162" />
    <line x1="34" y1="178" x2="34" y2="194" />
    <line x1="34" y1="226" x2="34" y2="242" />
    <line x1="34" y1="258" x2="34" y2="290" />
    <line x1="34" y1="322" x2="34" y2="338" />
    <line x1="34" y1="386" x2="34" y2="418" />
    <line x1="50" y1="34" x2="50" y2="50" />
    <line x1="50" y1="146" x2="50" y2="178" />
    <line x1="50" y1="210" x2="50" y2="226" />
    <line x1="50" y1="258" x2="50" y2="290" />
    <line x1="50" y1="338" x2="50" y2="354" />
    <line x1="50" y1="418" x2="50" y2="434" />
    <line x1="50" y1="466" x2="50" y2="482" />
    <line x1="66" y1="2" x2="66" y2="34" />
    <line x1="66" y1="50" x2="66" y2="82" />
    <line x1="66" y1="98" x2="66" y2="114" />
    <line x1="66" y1="130" x2="66" y2="162" />
    <line x1="66" y1="178" x2="66" y2="210" />
    <line x1="66" y1="226" x2="66" y2="242" />
    <line x1="66" y1="274" x2="66" y2="338" />
    <line x1="66" y1="354" x2="66" y2="370" />
    <line x1="66" y1="402" x2="66" y2="466" />
    <line x1="82" y1="18" x2="82" y2="50" />
    <line x1="82" y1="82" x2="82" y2="98" />
    <line x1="82" y1="162" x2="82" y2="194" />
    <line x1="82" y1="258" x2="82" y2="274" />
    <line x1="82" y1="306" x2="82" y2="354" />
    <line x1="82" y1="370" x2="82" y2="434" />
    <line x1="82" y1="466" x2="82" y2="482" />
    <line x1="98" y1="34" x2="98" y2="98" />
    <line x1="98" y1="162" x2="98" y2="178" />
    <line x1="98" y1="210" x2="98" y2="258" />
    <line x1="98" y1="274" x2="98" y2="306" />
    <line x1="98" y1="354" x2="98" y2="370" />
    <line x1="98" y1="402" x2="98" y2="418" />
    <line x1="114" y1="18" x2="114" y2="82" />
    <line x1="114" y1="98" x2="114" y2="130" />
    <line x1="114" y1="178" x2="114" y2="194" />
    <line x1="114" y1="210" x2="114" y2="226" />
    <line x1="114" y1="258" x2="114" y2="274" />
    <line x1="114" y1="306" x2="114" y2="322" />
    <line x1="114" y1="338" x2="114" y2="402" />
    <line x1="114" y1="418" x2="114" y2="434" />
    <line x1="130" y1="18" x2="130" y2="98" />
    <line x1="130" y1="130" x2="130" y2="162" />
    <line x1="130" y1="194" x2="130" y2="242" />
    <line x1="130" y1="274" x2="130" y2="338" />
    <line x1="130" y1="370" x2="130" y2="386" />
    <line x1="130" y1="434" x2="130" y2="450" />
    <line x1="146" y1="98" x2="146" y2="114" />
    <line x1="146" y1="162" x2="146" y2="178" />
    <line x1="146" y1="210" x2="146" y2="258" />
    <line x1="146" y1="322" x2="146" y2="338" />
    <line x1="146" y1="354" x2="146" y2="370" />
    <line x1="146" y1="386" x2="146" y2="402" />
    <line x1="146" y1="418" x2="146" y2="434" />
    <line x1="146" y1="450" x2="146" y2="466" />
    <line x1="162" y1="18" x2="162" y2="50" />
    <line x1="162" y1="66" x2="162" y2="82" />
    <line x1="162" y1="114" x2="162" y2="130" />
    <line x1="162" y1="146" x2="162" y2="210" />
    <line x1="162" y1="258" x2="162" y2="274" />
    <line x1="162" y1="290" x2="162" y2="322" />
    <line x1="162" y1="338" x2="162" y2="354" />
    <line x1="162" y1="402" x2="162" y2="418" />
    <line x1="162" y1="434" x2="162" y2="450" />
    <line x1="178" y1="18" x2="178" y2="34" />
    <line x1="178" y1="130" x2="178" y2="146" />
    <line x1="178" y1="210" x2="178" y2="226" />
    <line x1="178" y1="242" x2="178" y2="258" />
    <line x1="178" y1="274" x2="178" y2="290" />
    <line x1="178" y1="370" x2="178" y2="402" />
    <line x1="178" y1="418" x2="178" y2="450" />
    <line x1="178" y1="466" x2="178" y2="482" />
    <line x1="194" y1="34" x2="194" y2="66" />
    <line x1="194" y1="114" x2="194" y2="130" />
    <line x1="194" y1="146" x2="194" y2="162" />
    <line x1="194" y1="178" x2="194" y2="242" />
    <line x1="194" y1="258" x2="194" y2="274" />
    <line x1="194" y1="290" x2="194" y2="322" />
    <line x1="194" y1="370" x2="194" y2="386" />
    <line x1="194" y1="402" x2="194" y2="418" />
    <line x1="194" y1="450" x2="194" y2="466" />
    <line x1="210" y1="18" x2="210" y2="34" />
    <line x1="210" y1="66" x2="210" y2="114" />
    <line x1="210" y1="130" x2="210" y2="178" />
    <line x1="210" y1="210" x2="210" y2="226" />
    <line x1="210" y1="242" x2="210" y2="258" />
    <line x1="210" y1="274" x2="210" y2="290" />
    <line x1="210" y1="322" x2="210" y2="370" />
    <line x1="210" y1="386" x2="210" y2="466" />
    <line x1="226" y1="18" x2="226" y2="50" />
    <line x1="226" y1="82" x2="226" y2="130" />
    <line x1="226" y1="178" x2="226" y2="194" />
    <line x1="226" y1="258" x2="226" y2="322" />
    <line x1="226" y1="370" x2="226" y2="386" />
    <line x1="242" y1="2" x2="242" y2="18" />
    <line x1="242" y1="34" x2="242" y2="98" />
    <line x1="242" y1="162" x2="242" y2="178" />
    <line x1="242" y1="194" x2="242" y2="242" />
    <line x1="242" y1="274" x2="242" y2="290" />
    <line x1="242" y1="306" x2="242" y2="402" />
    <line x1="242" y1="450" x2="242" y2="482" />
    <line x1="258" y1="18" x2="258" y2="34" />
    <line x1="258" y1="50" x2="258" y2="82" />
    <line x1="258" y1="98" x2="258" y2="130" />
    <line x1="258" y1="178" x2="258" y2="194" />
    <line x1="258" y1="242" x2="258" y2="258" />
    <line x1="258" y1="274" x2="258" y2="306" />
    <line x1="258" y1="322" x2="258" y2="370" />
    <line x1="258" y1="386" x2="258" y2="418" />
    <line x1="258" y1="434" x2="258" y2="450" />
    <line x1="258" y1="466" x2="258" y2="482" />
    <line x1="274" y1="2" x2="274" y2="18" />
    <line x1="274" y1="50" x2="274" y2="66" />
    <line x1="274" y1="82" x2="274" y2="98" />
    <line x1="274" y1="114" x2="274" y2="178" />
    <line x1="274" y1="258" x2="274" y2="274" />
    <line x1="274" y1="306" x2="274" y2="338" />
    <line x1="274" y1="370" x2="274" y2="402" />
    <line x1="274" y1="418" x2="274" y2="434" />
    <line x1="274" y1="450" x2="274" y2="466" />
    <line x1="290" y1="18" x2="290" y2="82" />
    <line x1="290" y1="130" x2="290" y2="146" />
    <line x1="290" y1="226" x2="290" y2="242" />
    <line x1="290" y1="274" x2="290" y2="290" />
    <line x1="290" y1="306" x2="290" y2="354" />
    <line x1="290" y1="386" x2="290" y2="418" />
    <line x1="290" y1="434" x2="290" y2="450" />
    <line x1="306" y1="2" x2="306" y2="50" />
    <line x1="306" y1="82" x2="306" y2="130" />
    <line x1="306" y1="178" x2="306" y2="210" />
    <line x1="306" y1="226" x2="306" y2="258" />
    <line x1="306" y1="290" x2="306" y2="306" />
    <line x1="306" y1="322" x2="306" y2="370" />
    <line x1="306" y1="402" x2="306" y2="434" />
    <line x1="306" y1="450" x2="306" y2="466" />
    <line x1="322" y1="18" x2="322" y2="34" />
    <line x1="322" y1="50" x2="322" y2="98" />
    <line x1="322" y1="162" x2="322" y2="178" />
    <line x1="322" y1="210" x2="322" y2="226" />
    <line x1="322" y1="258" x2="322" y2="290" />
    <line x1="322" y1="338" x2="322" y2="354" />
    <line x1="322" y1="370" x2="322" y2="418" />
    <line x1="338" y1="66" x2="338" y2="130" />
    <line x1="338" y1="146" x2="338" y2="162" />
    <line x1="338" y1="194" x2="338" y2="242" />
    <line x1="338" y1="258" x2="338" y2="274" />
    <line x1="338" y1="290" x2="338" y2="338" />
    <line x1="338" y1="354" x2="338" y2="370" />
    <line x1="338" y1="402" x2="338" y2="418" />
    <line x1="338" y1="434" x2="338" y2="482" />
    <line x1="354" y1="82" x2="354" y2="162" />
    <line x1="354" y1="178" x2="354" y2="194" />
    <line x1="354" y1="210" x2="354" y2="226" />
    <line x1="354" y1="258" x2="354" y2="290" />
    <line x1="354" y1="322" x2="354" y2="338" />
    <line x1="354" y1="370" x2="354" y2="386" />
    <line x1="354" y1="418" x2="354" y2="450" />
    <line x1="370" y1="18" x2="370" y2="98" />
    <line x1="370" y1="114" x2="370" y2="146" />
    <line x1="370" y1="162" x2="370" y2="178" />
    <line x1="370" y1="194" x2="370" y2="210" />
    <line x1="370" y1="226" x2="370" y2="242" />
    <line x1="370" y1="258" x2="370" y2="274" />
    <line x1="370" y1="290" x2="370" y2="306" />
    <line x1="370" y1="338" x2="370" y2="354" />
    <line x1="370" y1="466" x2="370" y2="482" />
    <line x1="386" y1="2" x2="386" y2="50" />
    <line x1="386" y1="98" x2="386" y2="114" />
    <line x1="386" y1="178" x2="386" y2="194" />
    <line x1="386" y1="210" x2="386" y2="226" />
    <line x1="386" y1="242" x2="386" y2="258" />
    <line x1="386" y1="274" x2="386" y2="290" />
    <line x1="386" y1="322" x2="386" y2="338" />
    <line x1="386" y1="354" x2="386" y2="370" />
    <line x1="386" y1="402" x2="386" y2="418" />
    <line x1="386" y1="450" x2="386" y2="466" />
    <line x1="402" y1="2" x2="402" y2="18" />
    <line x1="402" y1="34" x2="402" y2="50" />
    <line x1="402" y1="66" x2="402" y2="82" />
    <line x1="402" y1="114" x2="402" y2="130" />
    <line x1="402" y1="146" x2="402" y2="178" />
    <line x1="402" y1="226" x2="402" y2="242" />
    <line x1="402" y1="258" x2="402" y2="274" />
    <line x1="402" y1="290" x2="402" y2="322" />
    <line x1="402" y1="338" x2="402" y2="354" />
    <line x1="402" y1="386" x2="402" y2="418" />
    <line x1="402" y1="434" x2="402" y2="466" />
    <line x1="418" y1="18" x2="418" y2="34" />
    <line x1="418" y1="98" x2="418" y2="114" />
    <line x1="418" y1="210" x2="418" y2="258" />
    <line x1="418" y1="274" x2="418" y2="370" />
    <line x1="418" y1="418" x2="418" y2="434" />
    <line x1="418" y1="450" x2="418" y2="482" />
    <line x1="434" y1="50" x2="434" y2="98" />
    <line x1="434" y1="114" x2="434" y2="194" />
    <line x1="434" y1="210" x2="434" y2="226" />
    <line x1="434" y1="242" x2="434" y2="290" />
    <line x1="434" y1="306" x2="434" y2="322" />
    <line x1="434" y1="386" x2="434" y2="450" />
    <line x1="450" y1="18" x2="450" y2="50" />
    <line x1="450" y1="82" x2="450" y2="114" />
    <line x1="450" y1="130" x2="450" y2="194" />
    <line x1="450" y1="226" x2="450" y2="242" />
    <line x1="450" y1="290" x2="450" y2="338" />
    <line x1="450" y1="354" x2="450" y2="386" />
    <line x1="450" y1="402" x2="450" y2="466" />
    <line x1="466" y1="18" x2="466" y2="34" />
    <line x1="466" y1="66" x2="466" y2="82" />
    <line x1="466" y1="114" x2="466" y2="130" />
    <line x1="466" y1="162" x2="466" y2="178" />
    <line x1="466" y1="338" x2="466" y2="354" />
    <line x1="466" y1="402" x2="466" y2="418" />
    <line x1="466" y1="450" x2="466" y2="466" />
    <line x1="482" y1="2" x2="482" y2="482" />
  </g>
<!--<polyline fill="none" stroke="#ff0000" stroke-width="2" stroke-linecap="square" stroke-linejoin="round" 
points="234,2 234,10 154,10 154,26 138,26 138,42 154,42 154,58 138,58 138,90 202,90 202,106 154,106 154,122
122,122 122,138 74,138 74,154 90,154 90,186 106,186 106,170 138,170 138,186 154,186 154,202 138,202 138,250
106,250 106,234 122,234 122,202 74,202 74,170 58,170 58,138 26,138 26,154 10,154 10,186 26,186 26,170 42,170
42,186 58,186 58,202 26,202 26,218 42,218 42,234 58,234 58,218 90,218 90,234 74,234 74,250 90,250 90,266 106,266 
106,282 122,282 122,266 154,266 154,234 186,234 186,202 170,202 170,186 186,186 186,170 170,170 170,154 186,154 
186,138 202,138 202,122 218,122 218,74 234,74 234,106 250,106 250,42 282,42 282,90 298,90 298,74 314,74 314,106 
330,106 330,58 346,58 346,74 362,74 362,106 378,106 378,90 394,90 394,106 410,106 410,122 426,122 426,106 442,106 
442,74 458,74 458,58 474,58 474,90 458,90 458,106 474,106 474,138 458,138 458,122 442,122 442,202 378,202 378,186 
362,186 362,202 346,202 346,234 362,234 362,218 378,218 378,234 394,234 394,218 410,218 410,250 394,250 394,266 
378,266 378,282 362,282 362,250 314,250 314,266 282,266 282,282 266,282 266,298 298,298 298,282 314,282 314,298 
330,298 330,314 298,314 298,362 282,362 282,346 266,346 266,314 250,314 250,378 266,378 266,410 282,410 282,378 
314,378 314,362 330,362 330,378 346,378 346,362 378,362 378,346 394,346 394,362 410,362 410,378 426,378 426,394 
410,394 410,410 426,410 426,442 410,442 410,426 378,426 378,410 346,410 346,426 314,426 314,394 298,394 298,426 
282,426 282,442 266,442 266,458 250,458 250,482" />-->
</svg>
